# Blender 4.0.0
# www.blender.org
mtllib box-outside-2.mtl
o box-outside
v -0.500000 0.500000 -0.500000
v -0.500000 0.500000 0.500000
v -0.500000 -0.500000 -0.500000
v -0.500000 -0.500000 0.500000
v 0.500000 0.500000 0.500000
v 0.500000 0.500000 -0.500000
v 0.500000 -0.500000 0.500000
v 0.500000 -0.500000 -0.500000
v -0.500000 -0.500000 -0.500000
v 0.500000 -0.500000 -0.500000
v -0.500000 0.500000 -0.500000
v 0.500000 0.500000 -0.500000
v -0.500000 0.500000 0.500000
v 0.500000 0.500000 0.500000
v -0.500000 -0.500000 0.500000
v 0.500000 -0.500000 0.500000
v 0.500000 -0.500000 -0.500000
v -0.500000 -0.500000 -0.500000
v 0.500000 -0.500000 0.500000
v -0.500000 -0.500000 0.500000
v -0.500000 0.500000 -0.500000
v 0.500000 0.500000 -0.500000
v -0.500000 0.500000 0.500000
v 0.500000 0.500000 0.500000
vn -1.0000 -0.0000 -0.0000
vn 1.0000 -0.0000 -0.0000
vn -0.0000 -0.0000 -1.0000
vn -0.0000 -0.0000 1.0000
vn -0.0000 -1.0000 -0.0000
vn -0.0000 1.0000 -0.0000
vt 0.333333 0.333333
vt 0.000000 0.000000
vt 0.333333 0.000000
vt 0.000000 0.333333
vt 0.333333 0.666667
vt 0.000000 0.666667
vt 0.333333 0.000000
vt 0.666667 0.333333
vt 0.666667 -0.000000
vt 0.666667 0.666667
vt 0.333333 0.333333
vt 0.000000 1.000000
vt 0.333333 1.000000
vt 0.666667 1.000000
s 0
f 1/1/1 4/2/1 2/3/1
f 1/1/1 3/4/1 4/2/1
f 5/4/2 8/5/2 6/6/2
f 5/4/2 7/1/2 8/5/2
f 9/7/3 12/8/3 10/1/3
f 9/7/3 11/9/3 12/8/3
f 13/10/4 16/11/4 14/8/4
f 13/10/4 15/5/4 16/11/4
f 17/12/5 20/5/5 18/13/5
f 17/12/5 19/6/5 20/5/5
f 21/13/6 24/10/6 22/14/6
f 21/13/6 23/5/6 24/10/6
