# Blender 4.4.3
# www.blender.org
mtllib skybox.mtl
o skybox
v -1.000000 1.000000 -1.000000
v -1.000000 -1.000000 -1.000000
v 1.000000 -1.000000 -1.000000
v 1.000000 1.000000 -1.000000
v -1.000000 1.000000 1.000000
v -1.000000 -1.000000 1.000000
v 1.000000 -1.000000 1.000000
v 1.000000 1.000000 1.000000
vn 0.5774 -0.5774 0.5774
vn 0.5774 0.5774 0.5774
vn -0.5774 0.5774 0.5774
vn -0.5774 -0.5774 0.5774
vn 0.5774 0.5774 -0.5774
vn 0.5774 -0.5774 -0.5774
vn -0.5774 0.5774 -0.5774
vn -0.5774 -0.5774 -0.5774
vt 0.333333 0.333333
vt 0.000000 0.333333
vt 0.000000 0.000000
vt 0.333333 0.000000
vt 0.000000 0.333333
vt 0.333333 0.333333
vt 0.333333 0.666667
vt 0.000000 0.666667
vt 0.666667 0.333333
vt 0.333333 0.333333
vt 0.333333 0.000000
vt 0.666667 0.000000
vt 0.333333 0.333333
vt 0.666667 0.333333
vt 0.666667 0.666667
vt 0.333333 0.666667
vt 0.333333 0.666667
vt 0.333333 1.000000
vt 0.000000 1.000000
vt 0.000000 0.666667
vt 0.666667 1.000000
vt 0.333333 1.000000
vt 0.666667 0.666667
vt 0.333333 0.666667
s 1
f 1/1/1 2/2/2 3/3/3
f 3/3/3 4/4/4 1/1/1
f 6/5/5 2/6/2 1/7/1
f 1/7/1 5/8/6 6/5/5
f 3/9/3 7/10/7 8/11/8
f 8/11/8 4/12/4 3/9/3
f 6/13/5 5/14/6 8/15/8
f 8/15/8 7/16/7 6/13/5
f 1/17/1 4/18/4 8/19/8
f 8/19/8 5/20/6 1/17/1
f 2/21/2 6/22/5 3/23/3
f 3/23/3 6/22/5 7/24/7
